<svg xmlns="http://www.w3.org/2000/svg" width="1920" height="1080" viewBox="0 0 1920 1080" data-output="../../03-bootstrap-grid-12.svg" role="img" aria-labelledby="title desc"><title id="title">Anatomia della grid Bootstrap a dodici colonne</title><desc id="desc">Container, row e dodici colonne ideali; su viewport piccola le tre regioni occupano tutta la riga, da lg diventano 3, 6 e 3 colonne.</desc><defs id="visual-kit-components"/><defs><linearGradient id="bg12" x1="0" y1="0" x2="1" y2="1"><stop stop-color="#071426"/><stop offset="1" stop-color="#132b45"/></linearGradient><filter id="sh12"><feDropShadow dx="0" dy="10" stdDeviation="15" flood-opacity=".3"/></filter></defs><rect width="1920" height="1080" fill="url(#bg12)"/><g font-family="Inter,Arial,sans-serif"><text x="960" y="72" text-anchor="middle" fill="#f8fafc" font-size="44" font-weight="800">GRID BOOTSTRAP · FLEXBOX + 12 COLONNE</text><text x="960" y="114" text-anchor="middle" fill="#b8c8dc" font-size="21">Le classi senza breakpoint valgono sempre; col-lg-* cambia proporzione da 992 px</text>
<g filter="url(#sh12)"><rect x="100" y="180" width="1720" height="650" rx="38" fill="#eff6ff" stroke="#38bdf8" stroke-width="5"/><rect x="160" y="250" width="1600" height="500" rx="28" fill="#ecfdf5" stroke="#22c55e" stroke-width="5"/></g><text x="140" y="225" fill="#075985" font-size="22" font-weight="800">.container</text><text x="200" y="300" fill="#166534" font-size="22" font-weight="800">.row.g-3</text>
<g transform="translate(220 338)"><g fill="#dbeafe" stroke="#3b82f6" stroke-width="2"><rect x="0" width="116" height="92" rx="10"/><rect x="124" width="116" height="92" rx="10"/><rect x="248" width="116" height="92" rx="10"/><rect x="372" width="116" height="92" rx="10"/><rect x="496" width="116" height="92" rx="10"/><rect x="620" width="116" height="92" rx="10"/><rect x="744" width="116" height="92" rx="10"/><rect x="868" width="116" height="92" rx="10"/><rect x="992" width="116" height="92" rx="10"/><rect x="1116" width="116" height="92" rx="10"/><rect x="1240" width="116" height="92" rx="10"/><rect x="1364" width="116" height="92" rx="10"/></g><g fill="#1e3a5f" font-size="19" font-weight="800" text-anchor="middle"><text x="58" y="56">1</text><text x="182" y="56">2</text><text x="306" y="56">3</text><text x="430" y="56">4</text><text x="554" y="56">5</text><text x="678" y="56">6</text><text x="802" y="56">7</text><text x="926" y="56">8</text><text x="1050" y="56">9</text><text x="1174" y="56">10</text><text x="1298" y="56">11</text><text x="1422" y="56">12</text></g>
<g transform="translate(0 145)"><rect width="364" height="130" rx="20" fill="#bae6fd" stroke="#0284c7" stroke-width="4"/><rect x="372" width="736" height="130" rx="20" fill="#c4b5fd" stroke="#7c3aed" stroke-width="4"/><rect x="1116" width="364" height="130" rx="20" fill="#bae6fd" stroke="#0284c7" stroke-width="4"/><text x="182" y="55" text-anchor="middle" fill="#075985" font-size="25" font-weight="800">PROFILO</text><text x="182" y="91" text-anchor="middle" fill="#075985" font-size="19">col-lg-3</text><text x="740" y="55" text-anchor="middle" fill="#5b21b6" font-size="25" font-weight="800">FEED</text><text x="740" y="91" text-anchor="middle" fill="#5b21b6" font-size="19">col-lg-6</text><text x="1298" y="55" text-anchor="middle" fill="#075985" font-size="25" font-weight="800">TENDENZE</text><text x="1298" y="91" text-anchor="middle" fill="#075985" font-size="19">col-lg-3</text></g></g>
<g transform="translate(160 865)"><rect width="760" height="130" rx="26" fill="#f8fafc"/><text x="380" y="42" text-anchor="middle" fill="#102a43" font-size="22" font-weight="800">PRIMA DI LG · col-12</text><text x="380" y="78" text-anchor="middle" fill="#52677f" font-size="18">profilo</text><text x="380" y="105" text-anchor="middle" fill="#52677f" font-size="18">feed · tendenze (una regione per riga)</text></g><g transform="translate(1000 865)"><rect width="760" height="130" rx="26" fill="#f8fafc"/><text x="380" y="42" text-anchor="middle" fill="#102a43" font-size="22" font-weight="800">DA LG · 3 + 6 + 3 = 12</text><text x="380" y="80" text-anchor="middle" fill="#52677f" font-size="18">Le proporzioni cambiano; la semantica HTML rimane.</text></g></g></svg>
